<svg xmlns="http://www.w3.org/2000/svg" xmlns:xlink="http://www.w3.org/1999/xlink" xmlns:fi="http://pattern.flaticon.com/" x="0" y="0" width="1920" height="1080" viewBox="0 0 3360 1890"><rect x="0px" y="0px" width="100%" height="100%" opacity="0" fill="#ffffff"/><defs><g transform="matrix(0.1123505801209749 -0.1123505801209749 0.1123505801209749 0.1123505801209749 204.47650297806086 181)" id="L1_13"><path d="M291.193,120.694l95.627-99.612L365.18,0.306L256,114.034L146.821,0.306l-21.642,20.776l95.628,99.612H0v361h30v30h30v-30    h362v30h30v-30h60v-361H291.193z M482,451.694H30v-301h452V451.694z"/><path d="M60,180.694v241h332v-241H60z M362,391.694H90v-181h272V391.694z"/><rect x="422px" y="330px" width="30px" height="30px"/><rect x="422px" y="270px" width="30px" height="30px"/><rect x="422px" y="391px" width="30px" height="30px"/></g><path d="M146.069,320.369h268.1c30.4,0,55.2-24.8,55.2-55.2v-112.8c0-0.1,0-0.3,0-0.4c0-0.3,0-0.5,0-0.8c0-0.2,0-0.4-0.1-0.6   c0-0.2-0.1-0.5-0.1-0.7s-0.1-0.4-0.1-0.6c-0.1-0.2-0.1-0.4-0.2-0.7c-0.1-0.2-0.1-0.4-0.2-0.6c-0.1-0.2-0.1-0.4-0.2-0.6   c-0.1-0.2-0.2-0.4-0.3-0.7c-0.1-0.2-0.2-0.4-0.3-0.5c-0.1-0.2-0.2-0.4-0.3-0.6c-0.1-0.2-0.2-0.3-0.3-0.5c-0.1-0.2-0.3-0.4-0.4-0.6   c-0.1-0.2-0.2-0.3-0.4-0.5c-0.1-0.2-0.3-0.3-0.4-0.5s-0.3-0.3-0.4-0.5s-0.3-0.3-0.4-0.4c-0.2-0.2-0.3-0.3-0.5-0.5   c-0.2-0.1-0.3-0.3-0.5-0.4c-0.2-0.1-0.4-0.3-0.6-0.4c-0.2-0.1-0.3-0.2-0.5-0.3s-0.4-0.2-0.6-0.4c-0.2-0.1-0.4-0.2-0.6-0.3   s-0.4-0.2-0.6-0.3s-0.4-0.2-0.6-0.3s-0.4-0.1-0.6-0.2c-0.2-0.1-0.5-0.2-0.7-0.2s-0.4-0.1-0.5-0.1c-0.3-0.1-0.5-0.1-0.8-0.1   c-0.1,0-0.2-0.1-0.4-0.1l-339.8-46.9v-47.4c0-0.5,0-1-0.1-1.4c0-0.1,0-0.2-0.1-0.4c0-0.3-0.1-0.6-0.1-0.9c-0.1-0.3-0.1-0.5-0.2-0.8   c0-0.2-0.1-0.3-0.1-0.5c-0.1-0.3-0.2-0.6-0.3-0.9c0-0.1-0.1-0.3-0.1-0.4c-0.1-0.3-0.2-0.5-0.4-0.8c-0.1-0.1-0.1-0.3-0.2-0.4   c-0.1-0.2-0.2-0.4-0.4-0.6c-0.1-0.2-0.2-0.3-0.3-0.5s-0.2-0.3-0.3-0.5s-0.3-0.4-0.4-0.6c-0.1-0.1-0.2-0.2-0.3-0.3   c-0.2-0.2-0.4-0.4-0.6-0.6c-0.1-0.1-0.2-0.2-0.3-0.3c-0.2-0.2-0.4-0.4-0.7-0.6c-0.1-0.1-0.3-0.2-0.4-0.3c-0.2-0.2-0.4-0.3-0.6-0.5   c-0.3-0.2-0.6-0.4-0.8-0.5c-0.1-0.1-0.2-0.1-0.3-0.2c-0.4-0.2-0.9-0.4-1.3-0.6l-73.7-31c-6.9-2.9-14.8,0.3-17.7,7.2   s0.3,14.8,7.2,17.7l65.4,27.6v61.2v9.7v74.4v66.5v84c0,28,21,51.2,48.1,54.7c-4.9,8.2-7.8,17.8-7.8,28c0,30.1,24.5,54.5,54.5,54.5   s54.5-24.5,54.5-54.5c0-10-2.7-19.5-7.5-27.5h121.4c-4.8,8.1-7.5,17.5-7.5,27.5c0,30.1,24.5,54.5,54.5,54.5s54.5-24.5,54.5-54.5   s-24.5-54.5-54.5-54.5h-255c-15.6,0-28.2-12.7-28.2-28.2v-36.6C126.069,317.569,135.769,320.369,146.069,320.369z M213.269,431.969   c0,15.2-12.4,27.5-27.5,27.5s-27.5-12.4-27.5-27.5s12.4-27.5,27.5-27.5S213.269,416.769,213.269,431.969z M428.669,431.969   c0,15.2-12.4,27.5-27.5,27.5s-27.5-12.4-27.5-27.5s12.4-27.5,27.5-27.5S428.669,416.769,428.669,431.969z M414.169,293.369h-268.1   c-15.6,0-28.2-12.7-28.2-28.2v-66.5v-74.4v-5l324.5,44.7v101.1C442.369,280.769,429.669,293.369,414.169,293.369z" transform="matrix(0.17164896428585052 0 0 0.17164896428585052 116.28471827138594 35.25422001630068)" id="L1_16"/><g transform="matrix(0.12868086312279703 0.019063830547893672 -0.019063830547893672 0.12868086312279703 305.4725594686233 266.7998314101586)" id="L1_19"><path d="M511.114,300.251c-9.94,0-17.638,7.663-17.638,17.651v241.105H368.401v-98.453c0-9.236-7.697-17.31-17.002-17.31h-90.435    c-9.948,0-17.96,8.073-17.96,17.31v98.453h-124.76v-233.1c0-9.306-7.69-17.036-17.638-17.036c-9.298,0-16.995,7.73-16.995,17.036    v250.752c0,9.305,7.697,17.036,16.995,17.036h160.358c9.298,0,16.995-7.731,16.995-17.036v-98.454h55.801v98.454    c0,9.305,7.697,17.036,17.639,17.036h159.715c9.299,0,16.995-7.731,16.995-17.036V317.903    C528.109,307.915,520.413,300.251,511.114,300.251z"/><path d="M607.003,314.003L467.819,174.225V78.919c0-9.921-8.019-17.583-17.96-17.583c-9.305,0-17.001,7.663-17.001,17.583v60.345    L318.046,23.774c-3.518-3.558-7.697-5.474-11.864-5.474c-4.81,0-8.983,1.984-12.507,5.474L5.361,312.087    c-6.917,6.91-7.375,17.994,0,24.357c6.411,7.389,17.454,6.91,24.371,0l276.45-275.793l275.807,278.393    c2.873,2.874,7.054,4.516,12.507,4.516c4.81,0,8.976-1.642,12.507-4.516C613.42,332.613,613.899,320.982,607.003,314.003z"/></g><path d="M59.972,20.164c0.007-0.041,0.011-0.081,0.013-0.123c0.002-0.049,0.001-0.096-0.003-0.145  c-0.004-0.042-0.01-0.082-0.02-0.123c-0.011-0.048-0.026-0.094-0.044-0.14c-0.009-0.024-0.011-0.049-0.022-0.072  c-0.008-0.017-0.022-0.03-0.031-0.047c-0.009-0.017-0.013-0.035-0.023-0.052l-10-16c-0.046-0.073-0.1-0.139-0.161-0.197  c-0.001-0.001-0.002-0.001-0.003-0.002c-0.086-0.081-0.188-0.139-0.297-0.185c-0.014-0.006-0.023-0.018-0.038-0.024  c-0.011-0.004-0.023-0.002-0.034-0.005c-0.101-0.034-0.205-0.057-0.314-0.057h-38c-0.108,0-0.211,0.023-0.31,0.056  c-0.011,0.003-0.022,0.001-0.032,0.005c-0.015,0.005-0.024,0.017-0.038,0.023c-0.104,0.043-0.202,0.099-0.287,0.175  c-0.005,0.005-0.012,0.008-0.017,0.012c-0.062,0.058-0.117,0.125-0.163,0.198l-10,16c-0.01,0.016-0.014,0.035-0.023,0.052  c-0.009,0.017-0.023,0.03-0.031,0.047c-0.011,0.023-0.013,0.048-0.023,0.072c-0.018,0.046-0.033,0.092-0.044,0.14  c-0.009,0.041-0.016,0.082-0.02,0.124C0,19.945-0.001,19.993,0.001,20.041c0.002,0.042,0.006,0.082,0.013,0.123  c0.008,0.048,0.021,0.095,0.037,0.142c0.013,0.039,0.027,0.077,0.045,0.115c0.009,0.018,0.012,0.038,0.022,0.056  c0.016,0.029,0.04,0.051,0.058,0.078c0.014,0.021,0.022,0.044,0.039,0.064l28.989,35.986c0.002,0.003,0.004,0.005,0.006,0.007  l0.005,0.007c0.003,0.004,0.008,0.005,0.011,0.009c0.082,0.099,0.184,0.174,0.295,0.234c0.03,0.016,0.058,0.03,0.089,0.043  c0.121,0.051,0.249,0.087,0.383,0.087c0.114,0,0.229-0.02,0.343-0.061c0.017-0.006,0.028-0.02,0.045-0.027  c0.051-0.021,0.091-0.055,0.137-0.084c0.076-0.048,0.147-0.098,0.206-0.163c0.014-0.015,0.035-0.022,0.048-0.038l29-36  c0.016-0.02,0.024-0.044,0.039-0.064c0.019-0.027,0.042-0.049,0.058-0.078c0.01-0.018,0.013-0.038,0.022-0.056  c0.018-0.038,0.032-0.075,0.045-0.115C59.95,20.259,59.964,20.213,59.972,20.164z M32.095,4.993h15.459l-4.86,13.045L32.095,4.993z   M40.892,18.993H19.095L29.993,5.58L40.892,18.993z M17.222,18.125L12.423,4.993h15.469L17.222,18.125z M41.593,20.993  L29.818,52.599L18.269,20.993H41.593z M49.221,6.246l7.967,12.748H44.472L49.221,6.246z M10.756,6.259l4.653,12.734H2.798  L10.756,6.259z M16.14,20.993l10.839,29.664L3.083,20.993H16.14z M32.39,51.423l11.337-30.43h13.176L32.39,51.423z" transform="matrix(1.2505431175231934 0 0 1.2505431175231934 308.61586368083954 45.492708550326824)" id="L1_20"/><g transform="matrix(0.17885081470012665 0 0 0.17885081470012665 44.24560750648379 137.2150899355462)" id="L1_21"><g><path d="M510.209,292.74l-42.046-63.076l-42.266-105.631c-1.609-4.047-5.531-6.703-9.906-6.703H298.666V85.331     c0-5.891-4.766-10.672-10.672-10.672h-63.999c-25.75,0-47.296,18.351-52.249,42.671H10.672C4.781,117.33,0,122.103,0,127.994     v255.995c0,5.89,4.781,10.655,10.672,10.655h33.077c4.953,24.327,26.5,42.687,52.249,42.687     c25.765,0,47.312-18.359,52.265-42.687h215.48c4.953,24.327,26.499,42.687,52.248,42.687c25.766,0,47.312-18.359,52.266-42.687     h33.077c5.891,0,10.656-4.766,10.656-10.655v-85.343C511.99,296.553,511.381,294.49,510.209,292.74z M266.667,95.994h10.672     v21.336h-10.672V95.994z M223.995,95.994h21.343v21.336h-51.499C198.246,104.916,210.105,95.994,223.995,95.994z M95.998,415.987     c-17.64,0-32-14.343-32-31.998c0-17.656,14.359-32,32-32c17.656,0,32,14.344,32,32     C127.997,401.644,113.654,415.987,95.998,415.987z M362.665,287.99v85.343h-63.999V245.327h63.999V287.99z M298.666,223.992     v-42.663h63.999v42.663H298.666z M287.993,159.993c-5.89,0-10.655,4.773-10.655,10.664v202.676H148.263     c-4.954-24.328-26.5-42.688-52.265-42.688c-25.75,0-47.296,18.359-52.249,42.688H21.343V138.657h387.43l8.53,21.336H287.993z      M383.992,181.329L383.992,181.329h41.858l17.062,42.663h-58.92V181.329z M415.991,415.987c-17.64,0-31.998-14.343-31.998-31.998     c0-17.656,14.358-32,31.998-32c17.656,0,32,14.344,32,32C447.991,401.644,433.647,415.987,415.991,415.987z M490.662,309.334     h-10.671c-5.891,0-10.656,4.765-10.656,10.655c0,5.89,4.766,10.656,10.656,10.656h10.671v42.688h-22.405     c-4.953-24.328-26.5-42.688-52.266-42.688c-11.983,0-23.077,4-31.998,10.703v-96.021h68.967l37.702,56.569V309.334z"/><path d="M344.462,280.46c-4.172,4.156-4.172,10.905,0,15.062c4.156,4.188,10.922,4.188,15.078,0     c2.078-2.063,3.125-4.798,3.125-7.532c0-2.733-1.047-5.468-3.125-7.53C355.384,276.272,348.618,276.272,344.462,280.46z"/></g><path d="M103.545,376.458c-4.156-4.188-10.922-4.188-15.078,0c-4.171,4.156-4.171,10.905,0,15.062    c4.156,4.188,10.922,4.188,15.078,0C107.717,387.364,107.717,380.615,103.545,376.458z"/><path d="M423.538,376.458c-4.156-4.188-10.922-4.188-15.077,0c-4.172,4.156-4.172,10.905,0,15.062    c4.155,4.188,10.921,4.188,15.077,0C427.71,387.364,427.71,380.615,423.538,376.458z"/><path d="M265.98,192.593l-0.219-1.156l-10.578-24.882c-0.016-0.031-0.031-0.062-0.047-0.102l-2.75-6.461h-7.047H53.343h-7.062    l-2.75,6.461c0,0.039-0.016,0.07-0.031,0.102l-10.468,24.601l-0.203,0.836c-0.406,1.672-0.609,3.383-0.609,5.078    c0,7.562,3.969,14.297,10.453,19.141v93.123c0,5.874,4.781,10.655,10.672,10.655h191.996c5.888,0,10.654-4.781,10.654-10.655    v-93.123c6.5-4.844,10.469-11.578,10.469-19.141C266.464,195.468,266.152,193.578,265.98,192.593z M234.667,298.646H63.998V287.99    h170.669V298.646z M234.668,266.655H63.998v-42.843c1.391,0.118,2.797,0.18,4.235,0.18c7.344,0,14.391-1.602,20.265-4.523    c5.891,2.922,12.938,4.523,20.281,4.523c7.359,0,14.406-1.602,20.281-4.523c5.875,2.922,12.921,4.523,20.281,4.523    c7.344,0,14.39-1.602,20.281-4.523c5.875,2.922,12.922,4.523,20.265,4.523c7.359,0,14.406-1.602,20.281-4.523    c5.875,2.922,12.921,4.523,20.281,4.523c1.438,0,2.844-0.062,4.219-0.18V266.655z M230.448,202.656    c-6.438,0-11.109-2.039-13.359-3.945l-6.921-5.914l-6.922,5.914c-2.234,1.906-6.922,3.945-13.359,3.945    c-6.421,0-11.109-2.039-13.343-3.945l-6.922-5.914l-6.938,5.914c-2.234,1.906-6.906,3.945-13.343,3.945    s-11.125-2.039-13.359-3.945l-6.922-5.914l-6.922,5.914c-2.234,1.906-6.922,3.945-13.359,3.945    c-6.438,0-11.109-2.039-13.344-3.945l-6.938-5.914l-6.921,5.914c-2.234,1.906-6.922,3.945-13.344,3.945    c-8.686,0-13.983-3.781-14.624-5.375l6.781-15.952h177.887l6.797,15.952C244.417,198.883,239.12,202.656,230.448,202.656z"/></g><g transform="matrix(0.1639527678489685 0 0 0.1639527678489685 134.02808952331543 268.4882795818146)" id="L1_22"><path d="m502 400.957031c-83.515625 0-165.484375 34.257813-224.890625 93.988281-3.898437 3.917969-3.878906 10.25.035156 14.140626 1.953125 1.941406 4.5 2.910156 7.054688 2.910156 2.566406 0 5.132812-.980469 7.089843-2.945313 55.679688-55.984375 132.480469-88.09375 210.710938-88.09375 5.523438 0 10-4.476562 10-10 0-5.519531-4.476562-10-10-10zm0 0"/><path d="m293.46875 391.695312c-3.09375-4.578124-9.308594-5.78125-13.882812-2.6875-42.761719 28.882813-78.875 65.023438-107.34375 107.414063-3.078126 4.585937-1.859376 10.800781 2.726562 13.878906 1.714844 1.148438 3.648438 1.699219 5.566406 1.699219 3.21875 0 6.382813-1.554688 8.3125-4.425781 27.023438-40.246094 61.316406-74.5625 101.933594-101.996094 4.574219-3.089844 5.777344-9.304687 2.6875-13.882813zm0 0"/><path d="m502 320.457031c-44.707031 0-88.957031 7.636719-131.519531 22.699219-5.207031 1.839844-7.933594 7.554688-6.089844 12.761719 1.449219 4.105469 5.308594 6.667969 9.425781 6.667969 1.105469 0 2.230469-.1875 3.335938-.578126 40.414062-14.300781 82.417968-21.550781 124.847656-21.550781 5.523438 0 10-4.476562 10-10 0-5.523437-4.476562-10-10-10zm0 0"/><path d="m143.277344 443.378906c65.789062-85.777344 161.023437-145.335937 266.109375-167.65625.019531-.003906.039062-.007812.054687-.011718 30.199219-6.410157 61.203125-9.75 92.558594-9.75 5.519531 0 10-4.480469 10-10 0-5.523438-4.480469-10-10-10-28.433594 0-56.757812 2.601562-84.601562 7.691406v-21.585938c36.144531-30.597656 55.984374-70.691406 55.984374-113.386718 0-44.144532-21.207031-85.507813-59.71875-116.472657-3.660156-2.941406-8.875-2.941406-12.535156 0-38.507812 30.964844-59.71875 72.328125-59.71875 116.472657 0 42.695312 19.84375 82.789062 55.984375 113.386718v25.675782c-19 4.324218-37.726562 9.835937-56.0625 16.472656v-58.550782c0-2.75-1.109375-5.238281-2.90625-7.046874v-.003907l-56-56.332031c-1.878906-1.886719-4.429687-2.949219-7.09375-2.949219h-114.332031c-2.660156 0-5.214844 1.0625-7.089844 2.949219l-56 56.332031v.003907c-1.796875 1.808593-2.910156 4.296874-2.910156 7.050781v38.1875c-6.96875-1.277344-13.96875-2.402344-21-3.363281v-35.648438c27.332031-23.511719 42.328125-54.175781 42.328125-86.84375 0-34.128906-16.359375-66.074219-46.0625-89.960938-3.660156-2.941406-8.871094-2.941406-12.53125 0-29.703125 23.882813-46.0625 55.832032-46.0625 89.960938 0 32.664062 14.996094 63.328125 42.328125 86.839844v33.351562c-14.582031-1.363281-29.261719-2.066406-44-2.066406-5.523438 0-10 4.476562-10 10s4.476562 10 10 10c79.960938 0 158.171875 21.15625 227.121094 61.292969-16.519532 11.226562-32.296875 23.488281-47.234375 36.6875-55.863281-28.460938-117.933594-43.480469-179.886719-43.480469-5.519531 0-10 4.476562-10 10s4.480469 10 10 10c56.371094 0 112.855469 13.109375 164.171875 38.003906-15.203125 14.707032-29.414063 30.441406-42.527344 47.074219-38.898437-16.3125-79.78125-24.578125-121.644531-24.578125-5.519531 0-10 4.476562-10 10s4.480469 10 10 10c37.5 0 74.164062 7.109375 109.1875 21.109375-6.910156 9.601563-13.476562 19.464844-19.652344 29.589844l-15.238281 24.964843c-2.878906 4.710938-1.386719 10.867188 3.324219 13.742188 1.628906.996094 3.425781 1.46875 5.203125 1.46875 3.367187 0 6.660156-1.707031 8.542969-4.792969l15.238281-24.964843c7.945312-13.019532 16.53125-25.546876 25.683593-37.574219.359376-.398438.695313-.824219.988282-1.289063zm218.136718-324.699218c0-35.542969 16.261719-69.210938 45.984376-95.59375 29.722656 26.382812 45.984374 60.050781 45.984374 95.59375 0 31.320312-12.640624 61.191406-35.984374 85.898437v-76.578125c0-5.523438-4.476563-10-10-10-5.523438 0-10 4.476562-10 10v76.578125c-23.347657-24.707031-35.984376-54.578125-35.984376-85.898437zm-329.742187 9.320312c0-25.507812 11.417969-49.734375 32.328125-68.984375 20.910156 19.246094 32.328125 43.476563 32.328125 68.984375 0 21.082031-7.808594 41.292969-22.328125 58.542969v-66.542969c0-5.523438-4.476562-10-10-10-5.519531 0-10 4.476562-10 10v66.542969c-14.519531-17.25-22.328125-37.460938-22.328125-58.542969zm275.621094 77.664062h-86.132813l-36.117187-36.332031h86.132812zm-146.292969-32.148437 31.960938 32.148437h-63.917969zm-46 52.148437h92v63.59375c-4.636719-2.132812-9.300781-4.195312-14-6.175781v-33.585937c0-5.519532-4.476562-10-10-10h-44c-5.519531 0-10 4.480468-10 10v11.890625c-4.648438-1.210938-9.3125-2.359375-14-3.429688zm58 49.527344c-7.929688-2.921875-15.929688-5.632812-24-8.121094v-7.574218h24zm54 23.851563v-73.378907h94.335938v56.3125c-17.128907 7.097657-33.867188 15.199219-50.09375 24.308594-5.1875 2.910156-10.3125 5.933594-15.378907 9.035156-9.453125-5.773437-19.078125-11.203124-28.863281-16.277343zm0 0"/><path d="m407.398438 100c2.628906 0 5.210937-1.070312 7.070312-2.933594 1.859375-1.859375 2.929688-4.4375 2.929688-7.066406 0-2.632812-1.066407-5.210938-2.929688-7.070312-1.859375-1.863282-4.441406-2.929688-7.070312-2.929688-2.628907 0-5.210938 1.066406-7.066407 2.929688-1.863281 1.859374-2.933593 4.4375-2.933593 7.070312 0 2.628906 1.070312 5.207031 2.933593 7.066406 1.855469 1.859375 4.4375 2.933594 7.066407 2.933594zm0 0"/><path d="m320.597656 365.269531c-1.855468 1.859375-2.929687 4.4375-2.929687 7.066407 0 2.640624 1.070312 5.210937 2.929687 7.070312 1.863282 1.863281 4.441406 2.929688 7.070313 2.929688 2.632812 0 5.210937-1.066407 7.070312-2.929688 1.859375-1.859375 2.929688-4.429688 2.929688-7.070312 0-2.628907-1.070313-5.207032-2.929688-7.066407-1.859375-1.863281-4.4375-2.933593-7.070312-2.933593-2.628907 0-5.207031 1.070312-7.070313 2.933593zm0 0"/></g></defs><g fi:class="KUsePattern" opacity="0.5"><pattern id="pattern_L1_13" width="350" height="350" patternUnits="userSpaceOnUse"><use xlink:href="#L1_13" x="-350" y="-350"/><use xlink:href="#L1_13" x="0" y="-350"/><use xlink:href="#L1_13" x="350" y="-350"/><use xlink:href="#L1_13" x="-350" y="0"/><use xlink:href="#L1_13" x="0" y="0"/><use xlink:href="#L1_13" x="350" y="0"/><use xlink:href="#L1_13" x="-350" y="350"/><use xlink:href="#L1_13" x="0" y="350"/><use xlink:href="#L1_13" x="350" y="350"/></pattern><rect x="0" y="0" width="100%" height="100%" fill="url(#pattern_L1_13)"/></g><g fi:class="KUsePattern" opacity="0.5"><pattern id="pattern_L1_16" width="350" height="350" patternUnits="userSpaceOnUse"><use xlink:href="#L1_16" x="-350" y="-350"/><use xlink:href="#L1_16" x="0" y="-350"/><use xlink:href="#L1_16" x="350" y="-350"/><use xlink:href="#L1_16" x="-350" y="0"/><use xlink:href="#L1_16" x="0" y="0"/><use xlink:href="#L1_16" x="350" y="0"/><use xlink:href="#L1_16" x="-350" y="350"/><use xlink:href="#L1_16" x="0" y="350"/><use xlink:href="#L1_16" x="350" y="350"/></pattern><rect x="0" y="0" width="100%" height="100%" fill="url(#pattern_L1_16)"/></g><g fi:class="KUsePattern" opacity="0.5"><pattern id="pattern_L1_19" width="350" height="350" patternUnits="userSpaceOnUse"><use xlink:href="#L1_19" x="-350" y="-350"/><use xlink:href="#L1_19" x="0" y="-350"/><use xlink:href="#L1_19" x="350" y="-350"/><use xlink:href="#L1_19" x="-350" y="0"/><use xlink:href="#L1_19" x="0" y="0"/><use xlink:href="#L1_19" x="350" y="0"/><use xlink:href="#L1_19" x="-350" y="350"/><use xlink:href="#L1_19" x="0" y="350"/><use xlink:href="#L1_19" x="350" y="350"/></pattern><rect x="0" y="0" width="100%" height="100%" fill="url(#pattern_L1_19)"/></g><g fi:class="KUsePattern" opacity="0.5"><pattern id="pattern_L1_20" width="350" height="350" patternUnits="userSpaceOnUse"><use xlink:href="#L1_20" x="-350" y="-350"/><use xlink:href="#L1_20" x="0" y="-350"/><use xlink:href="#L1_20" x="350" y="-350"/><use xlink:href="#L1_20" x="-350" y="0"/><use xlink:href="#L1_20" x="0" y="0"/><use xlink:href="#L1_20" x="350" y="0"/><use xlink:href="#L1_20" x="-350" y="350"/><use xlink:href="#L1_20" x="0" y="350"/><use xlink:href="#L1_20" x="350" y="350"/></pattern><rect x="0" y="0" width="100%" height="100%" fill="url(#pattern_L1_20)"/></g><g fi:class="KUsePattern" opacity="0.5"><pattern id="pattern_L1_21" width="350" height="350" patternUnits="userSpaceOnUse"><use xlink:href="#L1_21" x="-350" y="-350"/><use xlink:href="#L1_21" x="0" y="-350"/><use xlink:href="#L1_21" x="350" y="-350"/><use xlink:href="#L1_21" x="-350" y="0"/><use xlink:href="#L1_21" x="0" y="0"/><use xlink:href="#L1_21" x="350" y="0"/><use xlink:href="#L1_21" x="-350" y="350"/><use xlink:href="#L1_21" x="0" y="350"/><use xlink:href="#L1_21" x="350" y="350"/></pattern><rect x="0" y="0" width="100%" height="100%" fill="url(#pattern_L1_21)"/></g><g fi:class="KUsePattern" opacity="0.5"><pattern id="pattern_L1_22" width="350" height="350" patternUnits="userSpaceOnUse"><use xlink:href="#L1_22" x="-350" y="-350"/><use xlink:href="#L1_22" x="0" y="-350"/><use xlink:href="#L1_22" x="350" y="-350"/><use xlink:href="#L1_22" x="-350" y="0"/><use xlink:href="#L1_22" x="0" y="0"/><use xlink:href="#L1_22" x="350" y="0"/><use xlink:href="#L1_22" x="-350" y="350"/><use xlink:href="#L1_22" x="0" y="350"/><use xlink:href="#L1_22" x="350" y="350"/></pattern><rect x="0" y="0" width="100%" height="100%" fill="url(#pattern_L1_22)"/></g></svg>