<?xml version="1.0" encoding="UTF-8" standalone="no"?>
<!-- Generator: Adobe Illustrator 16.0.0, SVG Export Plug-In . SVG Version: 6.00 Build 0)  -->

<svg
   xmlns:dc="http://purl.org/dc/elements/1.1/"
   xmlns:cc="http://creativecommons.org/ns#"
   xmlns:rdf="http://www.w3.org/1999/02/22-rdf-syntax-ns#"
   xmlns:svg="http://www.w3.org/2000/svg"
   xmlns="http://www.w3.org/2000/svg"
   xmlns:sodipodi="http://sodipodi.sourceforge.net/DTD/sodipodi-0.dtd"
   xmlns:inkscape="http://www.inkscape.org/namespaces/inkscape"
   version="1.1"
   id="Capa_1"
   x="0px"
   y="0px"
   width="59.465px"
   height="59.465px"
   viewBox="0 0 59.465 59.465"
   style="enable-background:new 0 0 59.465 59.465;"
   xml:space="preserve"
   sodipodi:docname="home.svg"
   inkscape:version="0.92.3 (2405546, 2018-03-11)"><metadata
   id="metadata45"><rdf:RDF><cc:Work
       rdf:about=""><dc:format>image/svg+xml</dc:format><dc:type
         rdf:resource="http://purl.org/dc/dcmitype/StillImage" /></cc:Work></rdf:RDF></metadata><defs
   id="defs43" /><sodipodi:namedview
   pagecolor="#ffffff"
   bordercolor="#666666"
   borderopacity="1"
   objecttolerance="10"
   gridtolerance="10"
   guidetolerance="10"
   inkscape:pageopacity="0"
   inkscape:pageshadow="2"
   inkscape:window-width="1920"
   inkscape:window-height="1017"
   id="namedview41"
   showgrid="false"
   inkscape:snap-global="false"
   inkscape:zoom="3.9687211"
   inkscape:cx="-11.21268"
   inkscape:cy="29.7325"
   inkscape:window-x="1072"
   inkscape:window-y="401"
   inkscape:window-maximized="1"
   inkscape:current-layer="g8" />
<g
   id="g8"
   transform="translate(0.50394068,-0.25197034)">
	<g
   id="g6"
   style="fill:#372549;fill-opacity:1">
		<path
   d="M 58.862,33.886 45.045,20.069 v -9.112 c 0,-1.136 -0.921,-2.056 -2.056,-2.056 -1.137,0 -2.057,0.92 -2.057,2.056 v 5.001 L 31.185,6.21 C 30.384,5.407 29.081,5.407 28.28,6.21 L 0.603,33.886 c -0.803,0.804 -0.803,2.104 0,2.907 0.802,0.803 2.104,0.803 2.907,0 L 29.732,10.57 55.955,36.793 c 0.401,0.398 0.93,0.604 1.455,0.604 0.522,0 1.051,-0.201 1.452,-0.604 0.803,-0.805 0.803,-2.104 0,-2.907 z"
   id="path2"
   inkscape:connector-curvature="0"
   style="fill:#372549;fill-opacity:1" />
		<path
   d="M 52.979,36.245 31.185,14.449 c -0.385,-0.385 -0.908,-0.602 -1.454,-0.602 -0.545,0 -1.068,0.217 -1.453,0.602 L 6.484,36.245 C 6.193,36.533 5.997,36.904 5.919,37.307 5.858,37.621 5.828,37.94 5.828,38.249 v 10.638 c 0,2.739 2.229,4.971 4.969,4.971 h 10.638 c 1.378,0 2.707,-0.582 3.645,-1.599 0.854,-0.923 1.324,-2.12 1.324,-3.373 v -7.812 c 0,-1.896 1.453,-3.48 3.33,-3.658 1.878,0.178 3.331,1.762 3.331,3.658 v 7.812 c 0,1.252 0.472,2.45 1.324,3.373 0.938,1.017 2.269,1.599 3.646,1.599 h 10.638 c 2.74,0 4.971,-2.229 4.971,-4.972 V 38.252 c 0,-0.312 -0.031,-0.63 -0.092,-0.941 -0.081,-0.407 -0.281,-0.778 -0.573,-1.066 z"
   id="path4"
   inkscape:connector-curvature="0"
   style="fill:#372549;fill-opacity:1" />
	</g>
<path
   style="fill:none;stroke-width:0.25197035"
   d="M 9.7354438,53.199806 C 9.200131,53.008971 8.4400023,52.544199 8.0462687,52.166979 6.6090358,50.790022 6.5512288,50.443426 6.5512288,43.203129 V 36.567092 L 17.955985,25.162336 C 28.618936,14.499385 29.417699,13.757581 30.236441,13.757581 c 0.818754,0 1.61809,0.74239 12.292098,11.416397 l 11.416398,11.416399 -0.07464,6.954553 -0.07463,6.954555 -0.782625,0.96777 c -1.586237,1.961493 -1.652258,1.975654 -9.211492,1.975654 h -6.718502 l -1.090439,-0.76639 c -0.599742,-0.421517 -1.34466,-1.215223 -1.655367,-1.763793 -0.529299,-0.934497 -0.565537,-1.299338 -0.574606,-5.784838 -0.0084,-4.16961 -0.07211,-4.924962 -0.493436,-5.853105 -0.867632,-1.911307 -3.010831,-2.633172 -4.721327,-1.590221 -1.532003,0.934117 -1.695055,1.583582 -1.837068,7.317341 -0.104856,4.233573 -0.205848,5.307704 -0.559833,5.954281 -0.586086,1.070526 -1.782879,2.03536 -2.914534,2.349651 -1.458266,0.405002 -12.306476,0.319803 -13.5009952,-0.106029 z"
   id="path3750"
   inkscape:connector-curvature="0"
   transform="translate(-0.50394068,0.25197034)" /><path
   style="fill:none;stroke-width:0.25197035"
   d="M 9.7354438,53.199806 C 9.200131,53.008971 8.4400023,52.544199 8.0462687,52.166979 6.6090358,50.790022 6.5512288,50.443426 6.5512288,43.203129 V 36.567092 L 17.955985,25.162336 C 28.618936,14.499385 29.417699,13.757581 30.236441,13.757581 c 0.818754,0 1.61809,0.74239 12.292098,11.416397 l 11.416398,11.416399 -0.07464,6.954553 -0.07463,6.954555 -0.782625,0.96777 c -1.586237,1.961493 -1.652258,1.975654 -9.211492,1.975654 h -6.718502 l -1.090439,-0.76639 c -0.599742,-0.421517 -1.34466,-1.215223 -1.655367,-1.763793 -0.529299,-0.934497 -0.565537,-1.299338 -0.574606,-5.784838 -0.0084,-4.16961 -0.07211,-4.924962 -0.493436,-5.853105 -0.867632,-1.911307 -3.010831,-2.633172 -4.721327,-1.590221 -1.532003,0.934117 -1.695055,1.583582 -1.837068,7.317341 -0.104856,4.233573 -0.205848,5.307704 -0.559833,5.954281 -0.586086,1.070526 -1.782879,2.03536 -2.914534,2.349651 -1.458266,0.405002 -12.306476,0.319803 -13.5009952,-0.106029 z"
   id="path3752"
   inkscape:connector-curvature="0"
   transform="translate(-0.50394068,0.25197034)" /><path
   style="fill:none;stroke-width:0.25197035"
   d="M 9.7354438,53.199806 C 9.200131,53.008971 8.4400023,52.544199 8.0462687,52.166979 6.6090358,50.790022 6.5512288,50.443426 6.5512288,43.203129 V 36.567092 L 17.955985,25.162336 C 28.618936,14.499385 29.417699,13.757581 30.236441,13.757581 c 0.818754,0 1.61809,0.74239 12.292098,11.416397 l 11.416398,11.416399 -0.07464,6.954553 -0.07463,6.954555 -0.782625,0.96777 c -1.586237,1.961493 -1.652258,1.975654 -9.211492,1.975654 h -6.718502 l -1.090439,-0.76639 c -0.599742,-0.421517 -1.34466,-1.215223 -1.655367,-1.763793 -0.529299,-0.934497 -0.565537,-1.299338 -0.574606,-5.784838 -0.0084,-4.16961 -0.07211,-4.924962 -0.493436,-5.853105 -0.867632,-1.911307 -3.010831,-2.633172 -4.721327,-1.590221 -1.532003,0.934117 -1.695055,1.583582 -1.837068,7.317341 -0.104856,4.233573 -0.205848,5.307704 -0.559833,5.954281 -0.586086,1.070526 -1.782879,2.03536 -2.914534,2.349651 -1.458266,0.405002 -12.306476,0.319803 -13.5009952,-0.106029 z"
   id="path3754"
   inkscape:connector-curvature="0"
   transform="translate(-0.50394068,0.25197034)" /><path
   style="fill:none;stroke-width:0.25197035"
   d="M 9.7354438,53.199806 C 9.200131,53.008971 8.4400023,52.544199 8.0462687,52.166979 6.6090358,50.790022 6.5512288,50.443426 6.5512288,43.203129 V 36.567092 L 17.955985,25.162336 C 28.618936,14.499385 29.417699,13.757581 30.236441,13.757581 c 0.818754,0 1.61809,0.74239 12.292098,11.416397 l 11.416398,11.416399 -0.07464,6.954553 -0.07463,6.954555 -0.782625,0.96777 c -1.586237,1.961493 -1.652258,1.975654 -9.211492,1.975654 h -6.718502 l -1.090439,-0.76639 c -0.599742,-0.421517 -1.34466,-1.215223 -1.655367,-1.763793 -0.529299,-0.934497 -0.565537,-1.299338 -0.574606,-5.784838 -0.0084,-4.16961 -0.07211,-4.924962 -0.493436,-5.853105 -0.867632,-1.911307 -3.010831,-2.633172 -4.721327,-1.590221 -1.532003,0.934117 -1.695055,1.583582 -1.837068,7.317341 -0.104856,4.233573 -0.205848,5.307704 -0.559833,5.954281 -0.586086,1.070526 -1.782879,2.03536 -2.914534,2.349651 -1.458266,0.405002 -12.306476,0.319803 -13.5009952,-0.106029 z"
   id="path3756"
   inkscape:connector-curvature="0"
   transform="translate(-0.50394068,0.25197034)" /><path
   style="fill:none;stroke-width:0.25197035"
   d="M 9.7354438,53.199806 C 9.200131,53.008971 8.4400023,52.544199 8.0462687,52.166979 6.6090358,50.790022 6.5512288,50.443426 6.5512288,43.203129 V 36.567092 L 17.955985,25.162336 C 28.618936,14.499385 29.417699,13.757581 30.236441,13.757581 c 0.818754,0 1.61809,0.74239 12.292098,11.416397 l 11.416398,11.416399 -0.07464,6.954553 -0.07463,6.954555 -0.782625,0.96777 c -1.586237,1.961493 -1.652258,1.975654 -9.211492,1.975654 h -6.718502 l -1.090439,-0.76639 c -0.599742,-0.421517 -1.34466,-1.215223 -1.655367,-1.763793 -0.529299,-0.934497 -0.565537,-1.299338 -0.574606,-5.784838 -0.0084,-4.16961 -0.07211,-4.924962 -0.493436,-5.853105 -0.867632,-1.911307 -3.010831,-2.633172 -4.721327,-1.590221 -1.532003,0.934117 -1.695055,1.583582 -1.837068,7.317341 -0.104856,4.233573 -0.205848,5.307704 -0.559833,5.954281 -0.586086,1.070526 -1.782879,2.03536 -2.914534,2.349651 -1.458266,0.405002 -12.306476,0.319803 -13.5009952,-0.106029 z"
   id="path3758"
   inkscape:connector-curvature="0"
   transform="translate(-0.50394068,0.25197034)" /></g>
<g
   id="g10">
</g>
<g
   id="g12">
</g>
<g
   id="g14">
</g>
<g
   id="g16">
</g>
<g
   id="g18">
</g>
<g
   id="g20">
</g>
<g
   id="g22">
</g>
<g
   id="g24">
</g>
<g
   id="g26">
</g>
<g
   id="g28">
</g>
<g
   id="g30">
</g>
<g
   id="g32">
</g>
<g
   id="g34">
</g>
<g
   id="g36">
</g>
<g
   id="g38">
</g>
</svg>