<?xml version="1.0" encoding="UTF-8" standalone="no"?>
<!-- Created with Inkscape (http://www.inkscape.org/) -->

<svg
   xmlns:dc="http://purl.org/dc/elements/1.1/"
   xmlns:cc="http://creativecommons.org/ns#"
   xmlns:rdf="http://www.w3.org/1999/02/22-rdf-syntax-ns#"
   xmlns:svg="http://www.w3.org/2000/svg"
   xmlns="http://www.w3.org/2000/svg"
   xmlns:sodipodi="http://sodipodi.sourceforge.net/DTD/sodipodi-0.dtd"
   xmlns:inkscape="http://www.inkscape.org/namespaces/inkscape"
   version="1.1"
   id="svg2"
   width="320"
   height="128"
   viewBox="0 0 320 128"
   sodipodi:docname="venture(ink).svg"
   inkscape:version="0.92.3 (2405546, 2018-03-11)">
  <metadata
     id="metadata8">
    <rdf:RDF>
      <cc:Work
         rdf:about="">
        <dc:format>image/svg+xml</dc:format>
        <dc:type
           rdf:resource="http://purl.org/dc/dcmitype/StillImage" />
        <dc:title></dc:title>
      </cc:Work>
    </rdf:RDF>
  </metadata>
  <defs
     id="defs6" />
  <sodipodi:namedview
     pagecolor="#ffffff"
     bordercolor="#666666"
     borderopacity="0"
     objecttolerance="10"
     gridtolerance="10"
     guidetolerance="10"
     inkscape:pageopacity="0"
     inkscape:pageshadow="2"
     inkscape:window-width="1920"
     inkscape:window-height="1017"
     id="namedview4"
     showgrid="false"
     inkscape:zoom="2.7753941"
     inkscape:cx="162.26855"
     inkscape:cy="4.7910692"
     inkscape:window-x="1072"
     inkscape:window-y="401"
     inkscape:window-maximized="1"
     inkscape:current-layer="svg2" />
  <path
     style="fill:#ffffff;fill-opacity:1;stroke-width:0.50955415"
     d="M 29.637346,93.038464 C 29.364099,92.177537 28.346276,87.43451 25.735493,74.855916 25.153802,72.053368 24.265936,68.155279 23.762456,66.193496 23.258977,64.231712 22.697585,61.59477 22.514918,60.333623 22.332252,59.072477 21.380981,54.37184 20.400982,49.887763 17.831797,38.132209 17.726437,37.640254 16.626759,32.264948 c -0.549538,-2.68618 -1.145683,-5.265798 -1.324767,-5.732485 -0.293161,-0.763965 0.313577,-0.848521 6.088626,-0.848521 h 6.414236 l 0.300935,1.401274 c 0.165515,0.7707 0.534715,2.54777 0.820446,3.949044 0.285731,1.401274 0.716061,3.350319 0.956291,4.33121 0.24023,0.980892 0.550195,2.585988 0.688812,3.566879 0.138618,0.980892 0.747571,4.305733 1.35323,7.388535 0.60566,3.082803 1.277066,6.522293 1.492013,7.643312 0.214948,1.12102 0.765355,3.872612 1.223126,6.11465 0.457772,2.242038 1.093117,5.452229 1.411879,7.133758 1.179126,6.220111 0.656771,6.975349 13.392312,-19.363057 2.981287,-6.165605 6.616742,-13.671945 8.07879,-16.680755 l 2.65827,-5.470564 6.273605,-0.0071 6.273605,-0.0071 -2.263103,4.203821 c -1.244708,2.312102 -3.409228,6.382166 -4.810043,9.044586 -1.40082,2.662421 -3.113228,5.872612 -3.805353,7.133758 -1.804724,3.288451 -5.480867,10.183893 -8.421361,15.796179 -2.97046,5.66948 -6.106308,11.548715 -7.881747,14.77707 -1.250294,2.273462 -4.303825,8.009544 -7.527319,14.140127 l -1.674539,3.184713 h -3.206771 c -2.651429,0 -3.257652,-0.160315 -3.500586,-0.925732 z"
     id="V"
     inkscape:connector-curvature="0"
     inkscape:label="#path4828" />
  <path
     style="fill:#ffffff;fill-opacity:1;stroke-width:0.50955415"
     d="m 79.67655,92.151286 c -3.790249,-0.918664 -6.561535,-2.355171 -8.534202,-4.423738 -8.42476,-8.834327 -4.18995,-29.485905 7.597437,-37.04985 7.641556,-4.903573 18.929506,-4.608936 24.421235,0.637441 3.43471,3.281262 5.19296,9.902591 4.41333,16.619986 l -0.3597,3.099135 H 93.353856 c -10.101214,0 -14.026649,0.165853 -14.472261,0.611465 -0.839418,0.839418 -0.770259,6.01879 0.108373,8.116115 1.404857,3.353445 4.942595,5.395842 8.197359,4.732476 2.216739,-0.451802 5.543255,-2.490802 7.119259,-4.363777 l 1.366796,-1.624345 3.400285,0.629497 c 1.870153,0.346223 4.030853,0.746951 4.801563,0.890507 0.7707,0.143556 1.40099,0.414766 1.40065,0.602689 -5.9e-4,0.323463 -1.18103,1.808803 -3.71368,4.672889 -2.992585,3.384221 -6.8789,5.520108 -12.591433,6.920153 -3.477665,0.852317 -5.551268,0.836556 -9.294217,-0.07064 z M 97.664894,63.841258 c 0.867115,-1.62022 -0.345422,-5.316042 -2.427054,-7.397674 -1.532498,-1.532498 -2.014257,-1.715056 -4.525923,-1.715056 -1.545977,0 -3.447286,0.329104 -4.22513,0.731343 -1.857401,0.9605 -4.757408,4.201912 -5.61786,6.279225 -1.213271,2.929096 -0.549168,3.180514 8.401081,3.180514 7.439432,0 7.845698,-0.05219 8.394886,-1.078352 z"
     id="E"
     inkscape:connector-curvature="0"
     inkscape:label="#path4830" />
  <path
     style="fill:#ffffff;fill-opacity:1;stroke-width:0.50955415"
     d="m 116.3593,92.034916 -4.96815,-0.14584 v -1.794124 c 0,-0.986768 0.20982,-2.755535 0.46626,-3.930592 0.25645,-1.175058 0.73177,-4.085514 1.05627,-6.467679 0.3245,-2.382166 0.79257,-5.477707 1.04017,-6.878981 1.06042,-6.001424 1.74839,-10.314786 3.08834,-19.363058 l 0.60367,-4.076433 5.58821,0.160145 5.5882,0.160145 -0.24493,1.28129 c -0.37011,1.936103 0.84065,2.013381 3.09983,0.197851 2.44567,-1.965391 5.95994,-3.074236 9.73127,-3.070474 8.81289,0.0088 12.24709,4.376794 11.60686,14.762917 -0.16451,2.668641 -0.52195,5.998572 -0.79431,7.399846 -0.27237,1.401274 -0.75695,4.382166 -1.07684,6.624204 -0.72192,5.05981 -2.10283,13.540795 -2.34384,14.394904 -0.12938,0.458532 -1.70274,0.636943 -5.61701,0.636943 h -5.43729 l 0.32298,-2.420382 c 0.30914,-2.316626 0.96329,-6.631564 1.83467,-12.101911 1.84964,-11.61161 2.12089,-14.444781 1.57651,-16.466437 -0.75375,-2.799224 -2.73021,-4.175748 -5.96386,-4.153578 -4.61049,0.03161 -7.94896,3.594725 -9.29399,9.919378 -0.3576,1.681529 -0.75908,3.515924 -0.89218,4.076433 -0.1331,0.56051 -0.44573,2.509554 -0.69474,4.33121 -0.249,1.821656 -0.67753,4.687898 -0.95228,6.369427 -0.27475,1.681529 -0.73262,4.638375 -1.01748,6.570769 -0.28487,1.932395 -0.7025,3.65214 -0.92806,3.821657 -0.22557,0.169516 -2.64579,0.242583 -5.37828,0.16237 z"
     id="N"
     inkscape:connector-curvature="0"
     inkscape:label="#path4832" />
  <path
     style="fill:#ffffff;fill-opacity:1;stroke-width:0.50955415"
     d="m 166.02113,92.035325 -5.24264,-0.145432 0.28644,-1.638007 c 0.53047,-3.03358 2.40813,-14.862205 2.80792,-17.688963 0.218,-1.541402 0.76445,-5.063133 1.21433,-7.826069 0.44988,-2.762936 0.69165,-5.227904 0.53727,-5.477707 -0.15439,-0.249803 -1.09838,-0.454186 -2.09777,-0.454186 -1.7103,0 -1.80064,-0.08233 -1.53756,-1.401274 0.15372,-0.770701 0.4413,-2.834395 0.63906,-4.585987 0.35533,-3.147183 0.37831,-3.184805 1.94981,-3.192517 2.96479,-0.01455 3.06894,-0.240458 4.34996,-9.43542 0.78862,-5.660561 0.3911,-5.333847 6.48985,-5.333847 h 5.31889 l -0.24715,1.656051 c -0.13594,0.910828 -0.51097,3.375796 -0.83341,5.477707 -0.32244,2.101911 -0.50824,4.624204 -0.41288,5.605096 l 0.17338,1.783439 3.48467,0.1517 c 3.04757,0.132672 3.44078,0.260506 3.13469,1.019108 -0.1925,0.477075 -0.53237,2.282926 -0.75527,4.013002 -0.2229,1.730076 -0.55787,3.392496 -0.74437,3.694267 -0.18934,0.30636 -1.8968,0.548675 -3.8662,0.548675 -3.23812,0 -3.5492,0.09394 -3.7968,1.146497 -0.23463,0.997366 -1.2332,7.336332 -2.82953,17.961783 -0.25262,1.681529 -0.67106,4.318471 -0.92987,5.859873 -0.2588,1.541401 -0.64173,4.013065 -0.85094,5.492591 -0.20922,1.479521 -0.51964,2.740667 -0.68982,2.802548 -0.17019,0.06188 -2.66862,0.04708 -5.55206,-0.03292 z"
     id="T"
     inkscape:connector-curvature="0"
     inkscape:label="#path4834" />
  <path
     style="fill:#ffffff;fill-opacity:1;stroke-width:0.50955415"
     d="m 196.99624,92.1961 c -5.50494,-1.266084 -7.87946,-2.919641 -9.67356,-6.736422 -1.02771,-2.186375 -1.10225,-2.93412 -0.85105,-8.538211 0.15142,-3.378091 0.50937,-7.51778 0.79545,-9.199309 0.55636,-3.270159 1.40895,-8.55195 1.8507,-11.464968 0.14874,-0.980892 0.52313,-3.101911 0.83198,-4.713376 l 0.56154,-2.929936 h 5.56554 c 3.06104,0 5.45703,0.175566 5.32441,0.390146 -0.21982,0.355678 -0.6438,2.999215 -1.85795,11.584376 -0.23781,1.681529 -0.78931,5.00637 -1.22555,7.388535 -1.18707,6.482146 -1.07474,10.66953 0.34265,12.772793 1.57544,2.337798 4.34298,3.369575 6.9462,2.589634 4.82728,-1.446291 6.51582,-4.398323 8.20426,-14.343318 0.59977,-3.532706 3.048,-19.569321 3.0533,-20 0.003,-0.210191 2.55185,-0.382166 5.66503,-0.382166 5.61066,0 5.65796,0.01006 5.38904,1.146497 -0.14921,0.630573 -0.5343,2.980892 -0.85575,5.22293 -0.32145,2.242038 -0.78734,5.22293 -1.03532,6.624204 -0.24798,1.401273 -0.7028,4.382165 -1.01071,6.624203 -2.14158,15.593937 -6.65228,21.681974 -17.79116,24.012531 -3.98138,0.833013 -6.44826,0.821403 -10.22905,-0.04814 z"
     id="U"
     inkscape:connector-curvature="0"
     inkscape:label="#path4836" />
  <path
     style="fill:#ffffff;fill-opacity:1;stroke-width:0.50955415"
     d="m 231.33406,90.015152 c 0.18207,-1.050956 0.65845,-4.089172 1.05863,-6.751592 0.40018,-2.662421 1.08419,-7.019109 1.52002,-9.681529 2.51629,-15.371552 3.84787,-23.695218 3.84787,-24.052966 0,-0.223098 2.5516,-0.405633 5.67022,-0.405633 h 5.67022 l -0.32593,2.038217 c -0.41012,2.564793 0.44108,2.702816 2.83939,0.460407 2.51145,-2.348202 5.59548,-3.518993 9.24567,-3.509929 3.74176,0.0093 4.72846,0.461487 4.00342,1.834735 -0.49247,0.932768 -1.16312,3.166952 -2.04716,6.819882 -0.33304,1.376133 -0.65418,1.741369 -1.40614,1.59923 -7.30588,-1.380983 -11.2837,0.503818 -14.16315,6.71089 -0.97279,2.096997 -2.94145,12.306411 -4.3591,22.606174 -0.23813,1.730076 -0.58555,3.392496 -0.77206,3.694267 -0.20758,0.33588 -2.42833,0.548675 -5.72601,0.548675 h -5.38692 z"
     id="R"
     inkscape:connector-curvature="0"
     inkscape:label="#path4838" />
  <path
     style="fill:#ffffff;fill-opacity:1;stroke-width:0.50955415"
     d="m 276.874,92.151286 c -6.02291,-1.459805 -9.77854,-4.488589 -11.65245,-9.397281 -0.83127,-2.177513 -1.06831,-3.938973 -1.06283,-7.898089 0.006,-4.592117 0.24957,-6.087024 1.94817,-11.974522 0.52331,-1.813833 4.42756,-7.787244 6.13516,-9.386637 7.97195,-7.466801 21.50769,-8.516423 28.10797,-2.179618 3.40886,3.27279 5.0276,9.1845 4.3879,16.024854 l -0.34548,3.694267 h -13.85097 c -10.09356,0 -14.01683,0.165874 -14.46242,0.611465 -0.34304,0.343034 -0.60779,1.964807 -0.60309,3.694268 0.0208,7.631856 6.07392,11.447418 12.3374,7.776774 1.27814,-0.749035 2.93529,-2.0885 3.68257,-2.976588 l 1.35868,-1.614706 3.66317,0.609175 c 6.26105,1.041195 6.05252,0.958548 5.41661,2.146768 -1.86377,3.482479 -6.73036,7.758265 -10.588,9.302613 -5.81857,2.329373 -9.6266,2.741756 -14.47239,1.567257 z M 294.91331,63.66776 c 0.87586,-1.922289 -0.84935,-6.264927 -3.08796,-7.772912 -2.02793,-1.366065 -5.93552,-1.58089 -8.10282,-0.445464 -3.34,1.749796 -6.62397,6.738078 -5.64283,8.571357 0.42782,0.799385 1.35442,0.898869 8.37215,0.898869 7.88563,0 7.89148,-8.66e-4 8.46146,-1.25185 z"
     id="E2"
     inkscape:connector-curvature="0"
     inkscape:label="#path4840" />
</svg>
