<svg xmlns="http://www.w3.org/2000/svg" viewBox="0 0 218.1 51.9"><defs><style>.a{fill:#fff;}</style></defs><g transform="translate(-11.1 -19.2)"><path class="a" d="M54.7,19.2a3.334,3.334,0,0,1,0,1c-2.7,5.1-5.5,10.2-8.2,15.3-1.7,3.1-3.3,6.3-4.9,9.4-3.5,6.5-6.9,12.9-10.4,19.4-.9,1.7-1.8,3.5-2.8,5.3a14.309,14.309,0,0,1-1.1,1.5H22.7c-.2-.4-.6-.7-.7-1.2a27.436,27.436,0,0,1-.9-3.9c-.5-2.5-1-5-1.5-7.4l-3-13.8c-.8-3.8-1.7-7.6-2.5-11.5-.9-4.2-1.6-8.4-2.5-12.6,0-.2-.3-.3-.5-.5v-1h9.8a15.985,15.985,0,0,1,.5,2.1c.5,2,1,4,1.4,6,.5,2.3.8,4.7,1.3,7,.6,2.9,1.3,5.7,1.8,8.6.6,3.2,1.1,6.3,1.7,9.5,0,.3.3.5.6,1.1.6-1.2,1.1-2,1.5-2.8,1.7-3.4,3.4-6.8,5-10.2,1.4-3,2.8-5.9,4.3-8.9,1.4-2.9,2.9-5.9,4.3-8.8.6-1.2,1.3-2.4,1.9-3.6Z"/><path class="a" d="M229.2,51.1a4.253,4.253,0,0,0-.2,1.1c-.1,1.6,0,1.6-1.6,1.6h-17c-3.5,0-3.1.1-3.2,3.2a7.44,7.44,0,0,0,1.1,4.1c1.7,2.6,5,3.2,7.9,1.3a7.489,7.489,0,0,0,2.6-2.4,2.333,2.333,0,0,1,2.7-1c1.6.4,3.3.7,5,1,.9.2.9.7.5,1.3a17.712,17.712,0,0,1-10.4,8,16.34,16.34,0,0,1-8.5.4,12.86,12.86,0,0,1-7.5-4.2,12.945,12.945,0,0,1-2.6-6.8,23.941,23.941,0,0,1,2-12.4c1.9-4.2,4.8-7.7,9.3-9.5a17.509,17.509,0,0,1,6.8-1.3,14.5,14.5,0,0,1,7.4,1.5,8.66,8.66,0,0,1,3.9,3.9,47.182,47.182,0,0,1,1.8,5.3ZM215,48.5h5.1c.9,0,1.2-.4,1.2-1.2-.2-4.5-3.5-7.2-8-5.3a8.559,8.559,0,0,0-4.5,5c-.4,1,0,1.5,1.1,1.5Z"/><path class="a" d="M70.4,53.8H61c-1.5,0-1.8.2-1.7,1.7,0,1.6-.2,3.3.7,4.9a5.346,5.346,0,0,0,6.9,2.7,9,9,0,0,0,4.3-3.4,1.99,1.99,0,0,1,1.6-.7c1.9.3,3.8.8,5.7,1.1,1.1.2,1,.7.6,1.4A18.381,18.381,0,0,1,69,69.4c-4.8,1.4-9.6,1.1-13.9-1.7-3-1.9-4.4-5-4.8-8.5a24.058,24.058,0,0,1,.9-10C53,43.8,56,39.3,61.5,36.9a17.04,17.04,0,0,1,7.4-1.3,13.312,13.312,0,0,1,6.5,1.3,10.559,10.559,0,0,1,4.9,5.3c1,2.3.9,4.7,1.3,7.1a11.009,11.009,0,0,1-.5,4A1.442,1.442,0,0,1,80,54C76.7,53.8,73.5,53.8,70.4,53.8ZM67,48.5h5.3c.9,0,1.2-.4,1.2-1.2A5.727,5.727,0,0,0,71.8,43a4.689,4.689,0,0,0-2.4-1.5c-4.4-.8-7.1,2.2-8.4,5.4-.4,1.1,0,1.5,1.2,1.5C63.8,48.5,65.4,48.5,67,48.5Z"/><path class="a" d="M96.9,39.8a10.546,10.546,0,0,0,1.3-.8c2.6-2.6,5.8-3.2,9.3-2.9,1.7.1,3.5.3,4.8,1.5a8.005,8.005,0,0,1,2.3,2.9,14.985,14.985,0,0,1,.5,8.9c-.5,2.5-.7,5.1-1.1,7.6-.4,2.6-.9,5.2-1.4,7.8-.2,1-.2,2.1-.3,3.1-.1,1.1-.6,1.7-1.8,1.6-2-.1-4.1,0-6.1,0-.8,0-1.1-.3-1-1.2.4-2.5.7-5,1.1-7.5.6-3.8,1.3-7.5,1.8-11.3a10.274,10.274,0,0,0-.2-3.9c-.6-2.9-4.4-3.3-6.4-2.3-3,1.4-4.1,4.1-4.6,7.1-.8,4-1.3,8-1.9,12-.3,2-.7,4.1-1,6.1-.1.8-.5,1.1-1.3,1.1H84.4c-.9,0-1.2-.4-1-1.3.6-4.1,1.2-8.2,1.8-12.2.6-4.1,1.4-8.2,2-12.3.3-2,.6-3.9.8-5.9.1-.7.3-1,1-.9,2.2,0,4.4.1,6.6,0,1.1,0,1.5.3,1.3,1.3C96.9,38.7,96.9,39.1,96.9,39.8Z"/><path class="a" d="M171.6,36.5c-.3,1.9-.5,3.7-.8,5.4-.4,2.7-.9,5.5-1.3,8.2-.4,2.4-1,4.8-1.3,7.2a15.173,15.173,0,0,1-2.3,5.9,12.125,12.125,0,0,1-6.3,5.3,19.77,19.77,0,0,1-9.3,1.4c-2.9-.4-5.9-.8-8.1-3.2a9.489,9.489,0,0,1-2.4-5.6c-.3-4.7.6-9.2,1.4-13.7.4-2.4.7-4.8,1-7.2.2-1.1.3-2.2.6-3.3a.993.993,0,0,1,.8-.6h7.2c.5,0,.9,0,.7.8-.5,2.5-.8,5-1.2,7.5-.4,2.7-1,5.3-1.2,8a34.259,34.259,0,0,0-.2,6.4c.4,2.9,3.4,4.1,6,3.2,3.3-1.1,4.3-4,4.9-7,.6-2.5.9-5.1,1.3-7.7.4-2.8.8-5.5,1.2-8.3a20.483,20.483,0,0,1,.5-2.4,1.126,1.126,0,0,1,.8-.5C166.2,36.5,168.8,36.5,171.6,36.5Z"/><path class="a" d="M125,69.6h-3.5c-.7,0-1.1-.2-.9-1,.5-3.2,1.1-6.5,1.6-9.8.4-2.6.9-5.2,1.3-7.8.3-1.7.5-3.4.8-5,.2-.9-.1-1.5-1.2-1.4h-.8c-.8,0-1.1-.2-.9-1.2a43.379,43.379,0,0,0,.8-5.2c.1-.9.5-1.1,1.2-1.2h1.2c.8,0,1.2-.3,1.3-1.2.4-2.9.9-5.9,1.4-8.8.1-.8.4-1.1,1.4-1,2.1.2,4.2.1,6.2.1,1,0,1.3.2,1.1,1.3-.5,2.8-.8,5.6-1.2,8.4-.1.8.2,1.2,1,1.2h3.5c.8,0,1.1.3.9,1.1-.3,1.7-.7,3.5-.9,5.2a1.208,1.208,0,0,1-1.4,1.2c-1,0-2.1.1-3.1,0a1.368,1.368,0,0,0-1.7,1.2c-.4,2.8-.8,5.5-1.2,8.3-.3,2.3-.7,4.5-1,6.8-.4,2.3-.8,4.7-1.1,7-.2,1.6-.2,1.7-1.9,1.7-1.1.1-2,.1-2.9.1Z"/><path class="a" d="M178.4,37h8a1.085,1.085,0,0,1,.8.8,8.17,8.17,0,0,1-.5,2.2,8.719,8.719,0,0,0,1.7-.9c2.7-2.9,6.1-3.6,9.9-2.9.8.1,1.2.4.8,1.4a61.294,61.294,0,0,0-1.8,6.1c-.2.9-.4.9-1.3.6-2.5-1-6.6-.6-8.7,2.2a16.362,16.362,0,0,0-2.8,7.3c-.5,2.7-.8,5.5-1.2,8.2-.4,2.2-.8,4.3-1.2,6.5a1.12,1.12,0,0,1-.8.7c-2.4.1-4.7,0-7.1,0-.7,0-.8-.4-.7-1,.6-3.5,1.1-7,1.6-10.4.5-3.5,1-7,1.6-10.5.4-2.5.9-5.1,1.3-7.6C178.1,38.9,178.2,38,178.4,37Z"/></g></svg>