<?xml version="1.0" encoding="utf-8"?>
<!-- Generator: Adobe Illustrator 22.1.0, SVG Export Plug-In . SVG Version: 6.00 Build 0)  -->
<svg version="1.1" id="Layer_0_xA0_Image_1_" xmlns="http://www.w3.org/2000/svg" xmlns:xlink="http://www.w3.org/1999/xlink"
	 x="0px" y="0px" viewBox="0 0 240 96" style="enable-background:new 0 0 240 96;" xml:space="preserve">
<style type="text/css">
	.st0{fill:#FFFFFF;}
</style>
<g>
	<path class="st0" d="M54.7,19.2c0,0.3,0.1,0.8,0,1c-2.7,5.1-5.5,10.2-8.2,15.3c-1.7,3.1-3.3,6.3-4.9,9.4
		c-3.5,6.5-6.9,12.9-10.4,19.4c-0.9,1.7-1.8,3.5-2.8,5.3c-0.3,0.5-0.7,1-1.1,1.5c-1.5,0-3,0-4.6,0c-0.2-0.4-0.6-0.7-0.7-1.2
		c-0.4-1.3-0.7-2.6-0.9-3.9c-0.5-2.5-1-5-1.5-7.4c-1-4.6-2-9.2-3-13.8c-0.8-3.8-1.7-7.6-2.5-11.5c-0.9-4.2-1.6-8.4-2.5-12.6
		c0-0.2-0.3-0.3-0.5-0.5c0-0.3,0-0.6,0-1c3.3,0,6.6,0,9.8,0c0.2,0.7,0.4,1.4,0.5,2.1c0.5,2,1,4,1.4,6c0.5,2.3,0.8,4.7,1.3,7
		c0.6,2.9,1.3,5.7,1.8,8.6c0.6,3.2,1.1,6.3,1.7,9.5c0,0.3,0.3,0.5,0.6,1.1c0.6-1.2,1.1-2,1.5-2.8c1.7-3.4,3.4-6.8,5-10.2
		c1.4-3,2.8-5.9,4.3-8.9c1.4-2.9,2.9-5.9,4.3-8.8c0.6-1.2,1.3-2.4,1.9-3.6C48.5,19.2,51.6,19.2,54.7,19.2z"/>
	<path class="st0" d="M229.2,51.1c-0.1,0.4-0.2,0.7-0.2,1.1c-0.1,1.6,0,1.6-1.6,1.6c-5.7,0-11.4,0-17,0c-3.5,0-3.1,0.1-3.2,3.2
		c0,1.5,0.3,2.8,1.1,4.1c1.7,2.6,5,3.2,7.9,1.3c1-0.6,2-1.4,2.6-2.4c0.8-1.1,1.6-1.2,2.7-1c1.6,0.4,3.3,0.7,5,1
		c0.9,0.2,0.9,0.7,0.5,1.3c-2.5,3.9-5.9,6.8-10.4,8c-2.8,0.8-5.6,1.1-8.5,0.4c-3-0.7-5.5-1.8-7.5-4.2c-1.6-2-2.3-4.3-2.6-6.8
		c-0.4-4.3,0.2-8.5,2-12.4c1.9-4.2,4.8-7.7,9.3-9.5c2.2-0.9,4.4-1.3,6.8-1.3c2.6,0,5.1,0.2,7.4,1.5c1.7,0.9,3.1,2.2,3.9,3.9
		c0.8,1.7,1.2,3.5,1.8,5.3C229.2,47.8,229.2,49.4,229.2,51.1z M215,48.5C215,48.5,215,48.5,215,48.5c1.7,0,3.4,0,5.1,0
		c0.9,0,1.2-0.4,1.2-1.2c-0.2-4.5-3.5-7.2-8-5.3c-2.2,0.9-3.6,2.8-4.5,5c-0.4,1,0,1.5,1.1,1.5C211.6,48.5,213.3,48.5,215,48.5z"/>
	<path class="st0" d="M70.4,53.8c-3.1,0-6.2,0-9.4,0c-1.5,0-1.8,0.2-1.7,1.7c0,1.6-0.2,3.3,0.7,4.9c1.5,2.9,4.2,3.6,6.9,2.7
		c1.8-0.6,3.2-1.9,4.3-3.4c0.3-0.4,1.1-0.8,1.6-0.7c1.9,0.3,3.8,0.8,5.7,1.1c1.1,0.2,1,0.7,0.6,1.4c-2.5,3.8-5.8,6.6-10.1,7.9
		c-4.8,1.4-9.6,1.1-13.9-1.7c-3-1.9-4.4-5-4.8-8.5c-0.4-3.4-0.1-6.8,0.9-10c1.8-5.4,4.8-9.9,10.3-12.3c2.4-1,4.8-1.4,7.4-1.3
		c2.3,0,4.4,0.2,6.5,1.3c2.3,1.1,3.8,3,4.9,5.3c1,2.3,0.9,4.7,1.3,7.1c0.2,1.3-0.2,2.7-0.5,4c-0.1,0.3-0.7,0.7-1.1,0.7
		C76.7,53.8,73.5,53.8,70.4,53.8z M67,48.5C67,48.5,67,48.5,67,48.5c1.8,0,3.5,0,5.3,0c0.9,0,1.2-0.4,1.2-1.2
		c0.1-1.7-0.6-3.1-1.7-4.3c-0.6-0.7-1.5-1.3-2.4-1.5c-4.4-0.8-7.1,2.2-8.4,5.4c-0.4,1.1,0,1.5,1.2,1.5C63.8,48.5,65.4,48.5,67,48.5z
		"/>
	<path class="st0" d="M96.9,39.8c0.6-0.4,1-0.5,1.3-0.8c2.6-2.6,5.8-3.2,9.3-2.9c1.7,0.1,3.5,0.3,4.8,1.5c0.9,0.8,1.9,1.8,2.3,2.9
		c1.1,2.9,1.2,5.8,0.5,8.9c-0.5,2.5-0.7,5.1-1.1,7.6c-0.4,2.6-0.9,5.2-1.4,7.8c-0.2,1-0.2,2.1-0.3,3.1c-0.1,1.1-0.6,1.7-1.8,1.6
		c-2-0.1-4.1,0-6.1,0c-0.8,0-1.1-0.3-1-1.2c0.4-2.5,0.7-5,1.1-7.5c0.6-3.8,1.3-7.5,1.8-11.3c0.2-1.3,0.1-2.6-0.2-3.9
		c-0.6-2.9-4.4-3.3-6.4-2.3c-3,1.4-4.1,4.1-4.6,7.1c-0.8,4-1.3,8-1.9,12c-0.3,2-0.7,4.1-1,6.1c-0.1,0.8-0.5,1.1-1.3,1.1
		c-2.2,0-4.3,0-6.5,0c-0.9,0-1.2-0.4-1-1.3c0.6-4.1,1.2-8.2,1.8-12.2c0.6-4.1,1.4-8.2,2-12.3c0.3-2,0.6-3.9,0.8-5.9
		c0.1-0.7,0.3-1,1-0.9c2.2,0,4.4,0.1,6.6,0c1.1,0,1.5,0.3,1.3,1.3C96.9,38.7,96.9,39.1,96.9,39.8z"/>
	<path class="st0" d="M171.6,36.5c-0.3,1.9-0.5,3.7-0.8,5.4c-0.4,2.7-0.9,5.5-1.3,8.2c-0.4,2.4-1,4.8-1.3,7.2
		c-0.3,2.2-1.2,4.1-2.3,5.9c-1.5,2.5-3.6,4.3-6.3,5.3c-3,1.1-6.1,1.8-9.3,1.4c-2.9-0.4-5.9-0.8-8.1-3.2c-1.4-1.6-2.2-3.4-2.4-5.6
		c-0.3-4.7,0.6-9.2,1.4-13.7c0.4-2.4,0.7-4.8,1-7.2c0.2-1.1,0.3-2.2,0.6-3.3c0.1-0.3,0.5-0.6,0.8-0.6c2.4,0,4.8,0,7.2,0
		c0.5,0,0.9,0,0.7,0.8c-0.5,2.5-0.8,5-1.2,7.5c-0.4,2.7-1,5.3-1.2,8c-0.2,2.1-0.4,4.3-0.2,6.4c0.4,2.9,3.4,4.1,6,3.2
		c3.3-1.1,4.3-4,4.9-7c0.6-2.5,0.9-5.1,1.3-7.7c0.4-2.8,0.8-5.5,1.2-8.3c0.1-0.8,0.3-1.6,0.5-2.4c0.1-0.2,0.5-0.5,0.8-0.5
		C166.2,36.5,168.8,36.5,171.6,36.5z"/>
	<path class="st0" d="M125,69.6c-1.2,0-2.3,0-3.5,0c-0.7,0-1.1-0.2-0.9-1c0.5-3.2,1.1-6.5,1.6-9.8c0.4-2.6,0.9-5.2,1.3-7.8
		c0.3-1.7,0.5-3.4,0.8-5c0.2-0.9-0.1-1.5-1.2-1.4c-0.3,0-0.6,0-0.8,0c-0.8,0-1.1-0.2-0.9-1.2c0.4-1.7,0.6-3.4,0.8-5.2
		c0.1-0.9,0.5-1.1,1.2-1.2c0.4,0,0.8,0,1.2,0c0.8,0,1.2-0.3,1.3-1.2c0.4-2.9,0.9-5.9,1.4-8.8c0.1-0.8,0.4-1.1,1.4-1
		c2.1,0.2,4.2,0.1,6.2,0.1c1,0,1.3,0.2,1.1,1.3c-0.5,2.8-0.8,5.6-1.2,8.4c-0.1,0.8,0.2,1.2,1,1.2c1.2,0,2.3,0,3.5,0
		c0.8,0,1.1,0.3,0.9,1.1c-0.3,1.7-0.7,3.5-0.9,5.2c-0.1,0.9-0.6,1.2-1.4,1.2c-1,0-2.1,0.1-3.1,0c-1-0.1-1.5,0.3-1.7,1.2
		c-0.4,2.8-0.8,5.5-1.2,8.3c-0.3,2.3-0.7,4.5-1,6.8c-0.4,2.3-0.8,4.7-1.1,7c-0.2,1.6-0.2,1.7-1.9,1.7
		C126.8,69.6,125.9,69.6,125,69.6C125,69.6,125,69.6,125,69.6z"/>
	<path class="st0" d="M178.4,37c2.8,0,5.4,0,8,0c0.3,0,0.8,0.5,0.8,0.8c0,0.6-0.2,1.2-0.5,2.2c0.7-0.4,1.3-0.5,1.7-0.9
		c2.7-2.9,6.1-3.6,9.9-2.9c0.8,0.1,1.2,0.4,0.8,1.4c-0.7,2-1.3,4-1.8,6.1c-0.2,0.9-0.4,0.9-1.3,0.6c-2.5-1-6.6-0.6-8.7,2.2
		c-1.7,2.2-2.3,4.7-2.8,7.3c-0.5,2.7-0.8,5.5-1.2,8.2c-0.4,2.2-0.8,4.3-1.2,6.5c-0.1,0.3-0.5,0.7-0.8,0.7c-2.4,0.1-4.7,0-7.1,0
		c-0.7,0-0.8-0.4-0.7-1c0.6-3.5,1.1-7,1.6-10.4c0.5-3.5,1-7,1.6-10.5c0.4-2.5,0.9-5.1,1.3-7.6C178.1,38.9,178.2,38,178.4,37z"/>
</g>
</svg>
