<svg xmlns="http://www.w3.org/2000/svg" width="320" height="128">
  <path d="M29.637 93.038c-.273-.86-1.29-5.603-3.902-18.182-.581-2.803-1.47-6.7-1.973-8.663-.503-1.961-1.064-4.598-1.247-5.86-.183-1.26-1.134-5.961-2.114-10.445-2.57-11.756-2.675-12.248-3.774-17.623-.55-2.686-1.146-5.266-1.325-5.733-.293-.764.314-.848 6.089-.848h6.414l.3 1.401c.166.77.536 2.548.821 3.95.286 1.4.716 3.35.957 4.33.24.981.55 2.586.688 3.567.139.981.748 4.306 1.354 7.389.605 3.083 1.277 6.522 1.492 7.643a697.77 697.77 0 0 0 1.223 6.115 637.768 637.768 0 0 1 1.412 7.134c1.179 6.22.656 6.975 13.392-19.363 2.981-6.166 6.617-13.672 8.079-16.681l2.658-5.47 6.274-.008 6.273-.007-2.263 4.204c-1.245 2.312-3.41 6.382-4.81 9.044a623.253 623.253 0 0 1-3.805 7.134c-1.805 3.289-5.481 10.184-8.422 15.796-2.97 5.67-6.106 11.55-7.881 14.777-1.25 2.274-4.304 8.01-7.528 14.14l-1.674 3.185h-3.207c-2.651 0-3.258-.16-3.5-.925zM79.677 92.151c-3.79-.918-6.562-2.355-8.535-4.423-8.424-8.835-4.19-29.486 7.598-37.05 7.641-4.904 18.93-4.61 24.421.637 3.435 3.281 5.193 9.903 4.413 16.62l-.36 3.1h-13.86c-10.101 0-14.027.165-14.472.61-.84.84-.77 6.02.108 8.117 1.405 3.353 4.943 5.396 8.197 4.732 2.217-.451 5.544-2.49 7.12-4.363l1.366-1.625 3.4.63 4.802.89c.77.144 1.401.415 1.4.603 0 .323-1.18 1.809-3.713 4.673-2.992 3.384-6.879 5.52-12.591 6.92-3.478.852-5.552.836-9.294-.07zm17.988-28.31c.867-1.62-.346-5.316-2.427-7.397-1.533-1.533-2.014-1.715-4.526-1.715-1.546 0-3.447.329-4.225.73-1.858.961-4.758 4.203-5.618 6.28-1.213 2.93-.55 3.18 8.401 3.18 7.44 0 7.846-.052 8.395-1.078zM116.36 92.035l-4.969-.146v-1.794c0-.987.21-2.756.466-3.93.257-1.176.732-4.086 1.057-6.468.324-2.382.792-5.478 1.04-6.88 1.06-6 1.748-10.314 3.088-19.362l.604-4.077 5.588.16 5.588.16-.245 1.282c-.37 1.936.841 2.013 3.1.198 2.446-1.966 5.96-3.075 9.731-3.07 8.813.008 12.248 4.376 11.607 14.762-.164 2.669-.522 5.999-.794 7.4-.272 1.401-.757 4.382-1.077 6.624-.722 5.06-2.103 13.54-2.344 14.395-.13.459-1.702.637-5.617.637h-5.437l.323-2.42c.31-2.317.963-6.632 1.835-12.102 1.85-11.612 2.12-14.445 1.576-16.467-.754-2.799-2.73-4.175-5.964-4.153-4.61.031-7.949 3.594-9.294 9.919-.357 1.682-.759 3.516-.892 4.076-.133.561-.446 2.51-.695 4.332a299.274 299.274 0 0 1-.952 6.37 518.533 518.533 0 0 0-1.017 6.57c-.285 1.932-.703 3.652-.928 3.822-.226.17-2.646.242-5.379.162zM166.021 92.035l-5.243-.145.287-1.638c.53-3.034 2.408-14.862 2.808-17.69.218-1.54.764-5.062 1.214-7.825.45-2.763.692-5.228.537-5.478-.154-.25-1.098-.454-2.097-.454-1.71 0-1.801-.082-1.538-1.401.154-.771.441-2.835.64-4.586.355-3.147.377-3.185 1.949-3.193 2.965-.014 3.069-.24 4.35-9.435.789-5.66.391-5.334 6.49-5.334h5.319l-.247 1.656c-.136.91-.511 3.376-.834 5.478-.322 2.102-.508 4.624-.413 5.605l.174 1.783 3.484.152c3.048.133 3.441.26 3.135 1.019-.193.477-.532 2.283-.755 4.013-.223 1.73-.558 3.393-.745 3.694-.189.307-1.896.549-3.866.549-3.238 0-3.549.094-3.797 1.146-.234.998-1.233 7.337-2.83 17.962a417.845 417.845 0 0 1-.929 5.86 260.469 260.469 0 0 0-.851 5.493c-.21 1.48-.52 2.74-.69 2.802-.17.062-2.668.047-5.552-.033zM196.996 92.196c-5.505-1.266-7.88-2.92-9.673-6.736-1.028-2.187-1.103-2.934-.851-8.539.151-3.378.509-7.517.795-9.199.556-3.27 1.409-8.552 1.85-11.465.15-.98.524-3.102.833-4.713l.561-2.93h5.566c3.06 0 5.457.175 5.324.39-.22.356-.644 3-1.858 11.584-.238 1.682-.789 5.007-1.225 7.389-1.187 6.482-1.075 10.67.342 12.773 1.576 2.338 4.343 3.37 6.947 2.59 4.827-1.447 6.515-4.399 8.204-14.344.6-3.533 3.048-19.57 3.053-20 .003-.21 2.552-.382 5.665-.382 5.61 0 5.658.01 5.39 1.146-.15.63-.535 2.981-.857 5.223a259.459 259.459 0 0 1-1.035 6.625c-.248 1.4-.703 4.382-1.01 6.624-2.142 15.594-6.653 21.682-17.792 24.012-3.981.833-6.448.822-10.229-.048zM231.334 90.015c.182-1.05.659-4.089 1.059-6.751.4-2.663 1.084-7.02 1.52-9.682 2.516-15.372 3.848-23.695 3.848-24.053 0-.223 2.551-.406 5.67-.406h5.67l-.326 2.039c-.41 2.564.441 2.702 2.84.46 2.51-2.348 5.595-3.519 9.245-3.51 3.742.01 4.729.462 4.004 1.835-.493.933-1.164 3.167-2.048 6.82-.333 1.376-.654 1.741-1.406 1.599-7.306-1.381-11.283.504-14.163 6.71-.973 2.098-2.941 12.307-4.359 22.607-.238 1.73-.586 3.393-.772 3.694-.208.336-2.428.549-5.726.549h-5.387zM276.874 92.151c-6.023-1.46-9.779-4.488-11.652-9.397-.832-2.178-1.069-3.939-1.063-7.898.006-4.592.25-6.087 1.948-11.975.523-1.813 4.427-7.787 6.135-9.386 7.972-7.467 21.508-8.517 28.108-2.18 3.409 3.273 5.028 9.185 4.388 16.025l-.346 3.694h-13.85c-10.094 0-14.017.166-14.463.612-.343.343-.608 1.965-.603 3.694.02 7.632 6.074 11.447 12.337 7.777 1.279-.75 2.936-2.089 3.683-2.977l1.359-1.615 3.663.61c6.26 1.04 6.052.958 5.416 2.146-1.863 3.483-6.73 7.759-10.588 9.303-5.818 2.33-9.626 2.742-14.472 1.567zm18.04-28.483c.875-1.923-.85-6.265-3.089-7.773-2.028-1.366-5.935-1.581-8.102-.446-3.34 1.75-6.624 6.738-5.643 8.572.428.8 1.354.899 8.372.899 7.885 0 7.891-.001 8.461-1.252z" fill="#fff"/>
</svg>
